<?xml version="1.0" encoding="utf-8"?>
<!DOCTYPE svg PUBLIC "-//W3C//DTD SVG 1.1//EN" "http://www.w3.org/Graphics/SVG/1.1/DTD/svg11.dtd">
<svg width="220" height="330" viewBox="0 0 220 330" fill="none" xmlns="http://www.w3.org/2000/svg">
<rect width="220" height="330" fill="#E2E8F0"/>
<path d="M107.66 149.062L148.25 140.695L148.225 140.561L145.011 126.75L77.5353 140.125C74.1757 140.791 71.75 143.739 71.75 147.16V193.688C71.75 198.969 76.0308 203.25 81.3125 203.25H138.688C143.969 203.25 148.25 198.969 148.25 193.688V149.062H107.66ZM135.851 132.35L143.488 137.463L133.944 139.36L126.301 134.244L135.851 132.35ZM117.051 136.077L124.701 141.196L115.157 143.092L107.504 137.97L117.051 136.077ZM98.2317 139.809L105.891 144.935L96.3511 146.831L88.682 141.699L98.2317 139.809ZM90.0877 158.625L96.587 152.25H106.322L99.8223 158.625H90.0877ZM103.625 190.5V168.188L122.75 179.07L103.625 190.5ZM119.011 158.625H109.276L115.776 152.25H125.51L119.011 158.625ZM138.174 158.625H128.44L134.939 152.25H144.674L138.174 158.625Z" fill="#1A202C"/>
</svg>
